<?xml version="1.0" encoding="UTF-8" standalone="no"?>
<!DOCTYPE svg PUBLIC "-//W3C//DTD SVG 1.1//EN"
 "http://www.w3.org/Graphics/SVG/1.1/DTD/svg11.dtd">
<!-- Generated by graphviz version 2.38.0 (20140413.2041)
 -->
<!-- Title: G Pages: 1 -->
<svg width="397pt" height="442pt"
 viewBox="0.00 0.00 571.50 636.00" xmlns="http://www.w3.org/2000/svg" xmlns:xlink="http://www.w3.org/1999/xlink">
<g id="graph0" class="graph" transform="scale(0.694444 0.694444) rotate(0) translate(4 632)">
<title>G</title>
<polygon fill="white" stroke="none" points="-4,4 -4,-632 567.5,-632 567.5,4 -4,4"/>
<!-- 2372909075200 -->
<g id="node1" class="node"><title>2372909075200</title>
<polygon fill="none" stroke="black" points="6,-581.5 6,-627.5 244,-627.5 244,-581.5 6,-581.5"/>
<text text-anchor="middle" x="51" y="-600.8" font-family="Times New Roman,serif" font-size="14.00">z: InputLayer</text>
<polyline fill="none" stroke="black" points="96,-581.5 96,-627.5 "/>
<text text-anchor="middle" x="124" y="-612.3" font-family="Times New Roman,serif" font-size="14.00">input:</text>
<polyline fill="none" stroke="black" points="96,-604.5 152,-604.5 "/>
<text text-anchor="middle" x="124" y="-589.3" font-family="Times New Roman,serif" font-size="14.00">output:</text>
<polyline fill="none" stroke="black" points="152,-581.5 152,-627.5 "/>
<text text-anchor="middle" x="198" y="-612.3" font-family="Times New Roman,serif" font-size="14.00">[(None, 100)]</text>
<polyline fill="none" stroke="black" points="152,-604.5 244,-604.5 "/>
<text text-anchor="middle" x="198" y="-589.3" font-family="Times New Roman,serif" font-size="14.00">[(None, 100)]</text>
</g>
<!-- 2372507833008 -->
<g id="node2" class="node"><title>2372507833008</title>
<polygon fill="none" stroke="black" points="10.5,-498.5 10.5,-544.5 239.5,-544.5 239.5,-498.5 10.5,-498.5"/>
<text text-anchor="middle" x="55.5" y="-517.8" font-family="Times New Roman,serif" font-size="14.00">dense: Dense</text>
<polyline fill="none" stroke="black" points="100.5,-498.5 100.5,-544.5 "/>
<text text-anchor="middle" x="128.5" y="-529.3" font-family="Times New Roman,serif" font-size="14.00">input:</text>
<polyline fill="none" stroke="black" points="100.5,-521.5 156.5,-521.5 "/>
<text text-anchor="middle" x="128.5" y="-506.3" font-family="Times New Roman,serif" font-size="14.00">output:</text>
<polyline fill="none" stroke="black" points="156.5,-498.5 156.5,-544.5 "/>
<text text-anchor="middle" x="198" y="-529.3" font-family="Times New Roman,serif" font-size="14.00">(None, 100)</text>
<polyline fill="none" stroke="black" points="156.5,-521.5 239.5,-521.5 "/>
<text text-anchor="middle" x="198" y="-506.3" font-family="Times New Roman,serif" font-size="14.00">(None, 128)</text>
</g>
<!-- 2372909075200&#45;&gt;2372507833008 -->
<g id="edge1" class="edge"><title>2372909075200&#45;&gt;2372507833008</title>
<path fill="none" stroke="black" d="M125,-581.366C125,-573.152 125,-563.658 125,-554.725"/>
<polygon fill="black" stroke="black" points="128.5,-554.607 125,-544.607 121.5,-554.607 128.5,-554.607"/>
</g>
<!-- 2372507835136 -->
<g id="node3" class="node"><title>2372507835136</title>
<polygon fill="none" stroke="black" points="3.5,-415.5 3.5,-461.5 246.5,-461.5 246.5,-415.5 3.5,-415.5"/>
<text text-anchor="middle" x="55.5" y="-434.8" font-family="Times New Roman,serif" font-size="14.00">dense_1: Dense</text>
<polyline fill="none" stroke="black" points="107.5,-415.5 107.5,-461.5 "/>
<text text-anchor="middle" x="135.5" y="-446.3" font-family="Times New Roman,serif" font-size="14.00">input:</text>
<polyline fill="none" stroke="black" points="107.5,-438.5 163.5,-438.5 "/>
<text text-anchor="middle" x="135.5" y="-423.3" font-family="Times New Roman,serif" font-size="14.00">output:</text>
<polyline fill="none" stroke="black" points="163.5,-415.5 163.5,-461.5 "/>
<text text-anchor="middle" x="205" y="-446.3" font-family="Times New Roman,serif" font-size="14.00">(None, 128)</text>
<polyline fill="none" stroke="black" points="163.5,-438.5 246.5,-438.5 "/>
<text text-anchor="middle" x="205" y="-423.3" font-family="Times New Roman,serif" font-size="14.00">(None, 784)</text>
</g>
<!-- 2372507833008&#45;&gt;2372507835136 -->
<g id="edge2" class="edge"><title>2372507833008&#45;&gt;2372507835136</title>
<path fill="none" stroke="black" d="M125,-498.366C125,-490.152 125,-480.658 125,-471.725"/>
<polygon fill="black" stroke="black" points="128.5,-471.607 125,-461.607 121.5,-471.607 128.5,-471.607"/>
</g>
<!-- 2372508122864 -->
<g id="node4" class="node"><title>2372508122864</title>
<polygon fill="none" stroke="black" points="0,-332.5 0,-378.5 250,-378.5 250,-332.5 0,-332.5"/>
<text text-anchor="middle" x="41" y="-351.8" font-family="Times New Roman,serif" font-size="14.00">G: Reshape</text>
<polyline fill="none" stroke="black" points="82,-332.5 82,-378.5 "/>
<text text-anchor="middle" x="110" y="-363.3" font-family="Times New Roman,serif" font-size="14.00">input:</text>
<polyline fill="none" stroke="black" points="82,-355.5 138,-355.5 "/>
<text text-anchor="middle" x="110" y="-340.3" font-family="Times New Roman,serif" font-size="14.00">output:</text>
<polyline fill="none" stroke="black" points="138,-332.5 138,-378.5 "/>
<text text-anchor="middle" x="194" y="-363.3" font-family="Times New Roman,serif" font-size="14.00">(None, 784)</text>
<polyline fill="none" stroke="black" points="138,-355.5 250,-355.5 "/>
<text text-anchor="middle" x="194" y="-340.3" font-family="Times New Roman,serif" font-size="14.00">(None, 28, 28, 1)</text>
</g>
<!-- 2372507835136&#45;&gt;2372508122864 -->
<g id="edge3" class="edge"><title>2372507835136&#45;&gt;2372508122864</title>
<path fill="none" stroke="black" d="M125,-415.366C125,-407.152 125,-397.658 125,-388.725"/>
<polygon fill="black" stroke="black" points="128.5,-388.607 125,-378.607 121.5,-388.607 128.5,-388.607"/>
</g>
<!-- 2372508524384 -->
<g id="node6" class="node"><title>2372508524384</title>
<polygon fill="none" stroke="black" points="51,-249.5 51,-295.5 489,-295.5 489,-249.5 51,-249.5"/>
<text text-anchor="middle" x="130" y="-268.8" font-family="Times New Roman,serif" font-size="14.00">concatenate: Concatenate</text>
<polyline fill="none" stroke="black" points="209,-249.5 209,-295.5 "/>
<text text-anchor="middle" x="237" y="-280.3" font-family="Times New Roman,serif" font-size="14.00">input:</text>
<polyline fill="none" stroke="black" points="209,-272.5 265,-272.5 "/>
<text text-anchor="middle" x="237" y="-257.3" font-family="Times New Roman,serif" font-size="14.00">output:</text>
<polyline fill="none" stroke="black" points="265,-249.5 265,-295.5 "/>
<text text-anchor="middle" x="377" y="-280.3" font-family="Times New Roman,serif" font-size="14.00">[(None, 28, 28, 1), (None, 28, 28, 1)]</text>
<polyline fill="none" stroke="black" points="265,-272.5 489,-272.5 "/>
<text text-anchor="middle" x="377" y="-257.3" font-family="Times New Roman,serif" font-size="14.00">(None, 28, 28, 1)</text>
</g>
<!-- 2372508122864&#45;&gt;2372508524384 -->
<g id="edge4" class="edge"><title>2372508122864&#45;&gt;2372508524384</title>
<path fill="none" stroke="black" d="M164.622,-332.366C182.204,-322.544 203.06,-310.894 221.559,-300.56"/>
<polygon fill="black" stroke="black" points="223.403,-303.539 230.426,-295.607 219.989,-297.428 223.403,-303.539"/>
</g>
<!-- 2372507471376 -->
<g id="node5" class="node"><title>2372507471376</title>
<polygon fill="none" stroke="black" points="268.5,-332.5 268.5,-378.5 563.5,-378.5 563.5,-332.5 268.5,-332.5"/>
<text text-anchor="middle" x="327.5" y="-351.8" font-family="Times New Roman,serif" font-size="14.00">x_real: InputLayer</text>
<polyline fill="none" stroke="black" points="386.5,-332.5 386.5,-378.5 "/>
<text text-anchor="middle" x="414.5" y="-363.3" font-family="Times New Roman,serif" font-size="14.00">input:</text>
<polyline fill="none" stroke="black" points="386.5,-355.5 442.5,-355.5 "/>
<text text-anchor="middle" x="414.5" y="-340.3" font-family="Times New Roman,serif" font-size="14.00">output:</text>
<polyline fill="none" stroke="black" points="442.5,-332.5 442.5,-378.5 "/>
<text text-anchor="middle" x="503" y="-363.3" font-family="Times New Roman,serif" font-size="14.00">[(None, 28, 28, 1)]</text>
<polyline fill="none" stroke="black" points="442.5,-355.5 563.5,-355.5 "/>
<text text-anchor="middle" x="503" y="-340.3" font-family="Times New Roman,serif" font-size="14.00">[(None, 28, 28, 1)]</text>
</g>
<!-- 2372507471376&#45;&gt;2372508524384 -->
<g id="edge5" class="edge"><title>2372507471376&#45;&gt;2372508524384</title>
<path fill="none" stroke="black" d="M376.105,-332.366C358.401,-322.544 337.402,-310.894 318.775,-300.56"/>
<polygon fill="black" stroke="black" points="320.289,-297.398 309.847,-295.607 316.893,-303.519 320.289,-297.398"/>
</g>
<!-- 2372508297480 -->
<g id="node7" class="node"><title>2372508297480</title>
<polygon fill="none" stroke="black" points="138.5,-166.5 138.5,-212.5 401.5,-212.5 401.5,-166.5 138.5,-166.5"/>
<text text-anchor="middle" x="186" y="-185.8" font-family="Times New Roman,serif" font-size="14.00">flatten: Flatten</text>
<polyline fill="none" stroke="black" points="233.5,-166.5 233.5,-212.5 "/>
<text text-anchor="middle" x="261.5" y="-197.3" font-family="Times New Roman,serif" font-size="14.00">input:</text>
<polyline fill="none" stroke="black" points="233.5,-189.5 289.5,-189.5 "/>
<text text-anchor="middle" x="261.5" y="-174.3" font-family="Times New Roman,serif" font-size="14.00">output:</text>
<polyline fill="none" stroke="black" points="289.5,-166.5 289.5,-212.5 "/>
<text text-anchor="middle" x="345.5" y="-197.3" font-family="Times New Roman,serif" font-size="14.00">(None, 28, 28, 1)</text>
<polyline fill="none" stroke="black" points="289.5,-189.5 401.5,-189.5 "/>
<text text-anchor="middle" x="345.5" y="-174.3" font-family="Times New Roman,serif" font-size="14.00">(None, 784)</text>
</g>
<!-- 2372508524384&#45;&gt;2372508297480 -->
<g id="edge6" class="edge"><title>2372508524384&#45;&gt;2372508297480</title>
<path fill="none" stroke="black" d="M270,-249.366C270,-241.152 270,-231.658 270,-222.725"/>
<polygon fill="black" stroke="black" points="273.5,-222.607 270,-212.607 266.5,-222.607 273.5,-222.607"/>
</g>
<!-- 2372508295800 -->
<g id="node8" class="node"><title>2372508295800</title>
<polygon fill="none" stroke="black" points="148.5,-83.5 148.5,-129.5 391.5,-129.5 391.5,-83.5 148.5,-83.5"/>
<text text-anchor="middle" x="200.5" y="-102.8" font-family="Times New Roman,serif" font-size="14.00">dense_2: Dense</text>
<polyline fill="none" stroke="black" points="252.5,-83.5 252.5,-129.5 "/>
<text text-anchor="middle" x="280.5" y="-114.3" font-family="Times New Roman,serif" font-size="14.00">input:</text>
<polyline fill="none" stroke="black" points="252.5,-106.5 308.5,-106.5 "/>
<text text-anchor="middle" x="280.5" y="-91.3" font-family="Times New Roman,serif" font-size="14.00">output:</text>
<polyline fill="none" stroke="black" points="308.5,-83.5 308.5,-129.5 "/>
<text text-anchor="middle" x="350" y="-114.3" font-family="Times New Roman,serif" font-size="14.00">(None, 784)</text>
<polyline fill="none" stroke="black" points="308.5,-106.5 391.5,-106.5 "/>
<text text-anchor="middle" x="350" y="-91.3" font-family="Times New Roman,serif" font-size="14.00">(None, 128)</text>
</g>
<!-- 2372508297480&#45;&gt;2372508295800 -->
<g id="edge7" class="edge"><title>2372508297480&#45;&gt;2372508295800</title>
<path fill="none" stroke="black" d="M270,-166.366C270,-158.152 270,-148.658 270,-139.725"/>
<polygon fill="black" stroke="black" points="273.5,-139.607 270,-129.607 266.5,-139.607 273.5,-139.607"/>
</g>
<!-- 2372508597776 -->
<g id="node9" class="node"><title>2372508597776</title>
<polygon fill="none" stroke="black" points="166.5,-0.5 166.5,-46.5 373.5,-46.5 373.5,-0.5 166.5,-0.5"/>
<text text-anchor="middle" x="200.5" y="-19.8" font-family="Times New Roman,serif" font-size="14.00">D: Dense</text>
<polyline fill="none" stroke="black" points="234.5,-0.5 234.5,-46.5 "/>
<text text-anchor="middle" x="262.5" y="-31.3" font-family="Times New Roman,serif" font-size="14.00">input:</text>
<polyline fill="none" stroke="black" points="234.5,-23.5 290.5,-23.5 "/>
<text text-anchor="middle" x="262.5" y="-8.3" font-family="Times New Roman,serif" font-size="14.00">output:</text>
<polyline fill="none" stroke="black" points="290.5,-0.5 290.5,-46.5 "/>
<text text-anchor="middle" x="332" y="-31.3" font-family="Times New Roman,serif" font-size="14.00">(None, 128)</text>
<polyline fill="none" stroke="black" points="290.5,-23.5 373.5,-23.5 "/>
<text text-anchor="middle" x="332" y="-8.3" font-family="Times New Roman,serif" font-size="14.00">(None, 1)</text>
</g>
<!-- 2372508295800&#45;&gt;2372508597776 -->
<g id="edge8" class="edge"><title>2372508295800&#45;&gt;2372508597776</title>
<path fill="none" stroke="black" d="M270,-83.3664C270,-75.1516 270,-65.6579 270,-56.7252"/>
<polygon fill="black" stroke="black" points="273.5,-56.6068 270,-46.6068 266.5,-56.6069 273.5,-56.6068"/>
</g>
</g>
</svg>
